# xmcd
#
# Track frame offsets:
#	150
#	13157
#	54969
#	60217
#	88585
#	91486
#	99314
#	138227
#	161015
#	206813
#	221038
#	247827
#	293537
#
# Disc length: 3936 seconds
# Revision: 0
# Processed by: cddbd v1.5.2PL0 Copyright (c) Steve Scherf et al.
# Submitted via: dBpowerAMP V12.0
#
DISCID=a90f5e0d
DTITLE=Hale Dwoskin - The Sedona Method Course CD 18
DYEAR=2007
DGENRE=Speech
TTITLE0=Accepting that Change Is Possible
TTITLE1=Release on Accepting that Change is Possible
TTITLE2=Accepting Your Body as It Is
TTITLE3=Release on Accepting Your Body as It Is
TTITLE4=Summary of Release
TTITLE5=Questions and Answers
TTITLE6=Release on Dissolving the Feelings that Cause Dis-ease
TTITLE7=Summary of Release
TTITLE8=Release on Beliefs about the Body
TTITLE9=Releasing Physical Sensations
TTITLE10=Release on Physical Sensations - Dissolving Pain
TTITLE11=Q and A, Sharing and Assistance
TTITLE12=Conclusion
EXTD=
EXTT0=
EXTT1=
EXTT2=
EXTT3=
EXTT4=
EXTT5=
EXTT6=
EXTT7=
EXTT8=
EXTT9=
EXTT10=
EXTT11=
EXTT12=
PLAYORDER=
